<?xml version="1.0" encoding="UTF-8"?>
<svg id="Layer_2" xmlns="http://www.w3.org/2000/svg" version="1.1" viewBox="0 0 247.49 277.87">
  <!-- Generator: Adobe Illustrator 29.5.1, SVG Export Plug-In . SVG Version: 2.1.0 Build 141)  -->
  <defs>
    <style>
      .st0 {
        stroke: #ecadce;
      }

      .st0, .st1 {
        fill: none;
        stroke-miterlimit: 10;
      }

      .st1 {
        stroke: #000;
      }
    </style>
  </defs>
  <path class="st0" d="M131.16,56.17"/>
  <path class="st0" d="M115.43,51.45"/>
  <g>
    <g>
      <path class="st1" d="M243.07,107.38L3.72,167.58"/>
      <line class="st1" x1="33.72" y1="122.54" x2="213.48" y2="155.92"/>
    </g>
    <line class="st1" x1="119.63" y1="220.98" x2="119.63" y2="52.88"/>
    <path class="st1" d="M138.01,121.58c18.19-17.58,39.94-41.54,50.36-61.62l.46-.89c3.61-7.16,5.77-13.85,5.77-19.6s-1.03-11.03-3.09-15.31l-.46-.89c-3.66-6.86-10.19-11.53-19.73-14.29-3.31-.97-6.96-1.7-10.89-2.25l-1-.13c-11.07-1.45-24.45-1.58-39.69-1.58-19.76,0-36.42.22-48.95,3.26l-.98.24c-.74.19-1.46.39-2.17.6-9.48,2.83-15.89,7.58-19.43,14.59l-.43.92c-1.95,4.18-2.93,9.11-2.93,14.85,0,7.58,3.78,16.83,9.72,26.67l.53.87c8.59,13.96,21.48,29.09,34.18,42.36,4.24,4.42,8.45,8.64,12.49,12.53l17.78,16.5,18.17,16.53c16.13,15.57,35.21,36.28,46.67,54.89l.53.87c5.94,9.84,9.72,19.08,9.72,26.67,0,5.73-.98,10.66-2.93,14.85l-.43.92c-3.53,7.01-9.94,11.76-19.43,14.59-.71.21-1.43.41-2.17.6l-.98.24c-12.53,3.03-29.19,3.26-48.95,3.26-15.23,0-28.62-.14-39.69-1.58l-1-.13c-3.93-.55-7.57-1.28-10.89-2.25-9.55-2.76-16.07-7.43-19.73-14.29l-.46-.89c-2.07-4.27-3.09-9.35-3.09-15.31s2.16-12.44,5.77-19.6l.46-.89c10.42-20.08,32.18-44.04,50.36-61.62l18.31-16.87,18.26-16.79Z"/>
  </g>
</svg>